<svg width="12" height="14" viewBox="0 0 12 14" fill="none" xmlns="http://www.w3.org/2000/svg">
<path d="M10.0879 3.08795H1.91211L2.78711 1.91217H9.21289L10.0879 3.08795ZM11.7148 3.3067L9.96484 0.982483C9.91016 0.909566 9.8418 0.854879 9.75977 0.81842C9.67773 0.772847 9.59115 0.750061 9.5 0.750061H2.5C2.40885 0.750061 2.32227 0.772847 2.24023 0.81842C2.1582 0.854879 2.08984 0.909566 2.03516 0.982483L0.285156 3.3067C0.276042 3.32493 0.26237 3.34316 0.244141 3.36139C0.235026 3.37962 0.225911 3.39785 0.216797 3.41608C0.198568 3.46165 0.184896 3.50722 0.175781 3.5528C0.166667 3.58925 0.162109 3.62571 0.162109 3.66217V11.838C0.162109 12.0749 0.207682 12.3028 0.298828 12.5215C0.389974 12.7312 0.517578 12.9135 0.681641 13.0684C0.836589 13.2234 1.01888 13.3464 1.22852 13.4376C1.44727 13.5378 1.67513 13.588 1.91211 13.588H10.0879C10.3249 13.588 10.5482 13.5424 10.7578 13.4512C10.9766 13.3601 11.1634 13.2325 11.3184 13.0684C11.4733 12.9135 11.5964 12.7312 11.6875 12.5215C11.7878 12.3028 11.8379 12.0749 11.8379 11.838V3.66217C11.8379 3.59837 11.8242 3.53912 11.7969 3.48444C11.7786 3.42975 11.7559 3.37506 11.7285 3.32037C11.7194 3.32037 11.7148 3.32037 11.7148 3.32037V3.3067ZM1.33789 4.25006H10.6621V11.838C10.6621 11.9109 10.6484 11.9838 10.6211 12.0567C10.5938 12.1296 10.5527 12.1934 10.498 12.2481C10.4434 12.3028 10.3796 12.3438 10.3066 12.3712C10.2428 12.3985 10.1699 12.4122 10.0879 12.4122H1.91211C1.83919 12.4122 1.76628 12.3985 1.69336 12.3712C1.62044 12.3438 1.55664 12.3028 1.50195 12.2481C1.44727 12.1934 1.40625 12.1296 1.37891 12.0567C1.35156 11.9838 1.33789 11.9109 1.33789 11.838V4.25006ZM7.75 6.00006C7.75 6.24615 7.70443 6.47402 7.61328 6.68365C7.52214 6.89329 7.39453 7.07558 7.23047 7.23053C7.07552 7.39459 6.89323 7.5222 6.68359 7.61334C6.47396 7.70449 6.24609 7.75006 6 7.75006C5.75391 7.75006 5.52604 7.70449 5.31641 7.61334C5.10677 7.5222 4.92448 7.39459 4.76953 7.23053C4.60547 7.07558 4.47786 6.89329 4.38672 6.68365C4.29557 6.47402 4.25 6.24615 4.25 6.00006C4.25 5.836 4.19076 5.69928 4.07227 5.5899C3.96289 5.47142 3.82617 5.41217 3.66211 5.41217C3.50716 5.41217 3.37044 5.47142 3.25195 5.5899C3.14258 5.69928 3.08789 5.836 3.08789 6.00006C3.08789 6.4011 3.16081 6.77936 3.30664 7.13483C3.46159 7.4903 3.67122 7.80019 3.93555 8.06451C4.19987 8.32884 4.50977 8.53847 4.86523 8.69342C5.2207 8.83925 5.59896 8.91217 6 8.91217C6.40104 8.91217 6.7793 8.83925 7.13477 8.69342C7.49023 8.53847 7.80013 8.32884 8.06445 8.06451C8.32878 7.80019 8.53385 7.4903 8.67969 7.13483C8.83464 6.77936 8.91211 6.4011 8.91211 6.00006C8.91211 5.836 8.85286 5.69928 8.73438 5.5899C8.625 5.47142 8.49284 5.41217 8.33789 5.41217C8.17383 5.41217 8.03255 5.47142 7.91406 5.5899C7.80469 5.69928 7.75 5.836 7.75 6.00006Z" fill="#96AE00"/>
</svg>
