<svg width="16" height="15" viewBox="0 0 16 15" fill="none" xmlns="http://www.w3.org/2000/svg">
<path d="M13.4219 2.875C13.7135 3.16667 13.9323 3.5 14.0781 3.875C14.224 4.23958 14.2969 4.61458 14.2969 5C14.2969 5.38542 14.224 5.76562 14.0781 6.14062C13.9323 6.50521 13.7135 6.83333 13.4219 7.125L8 12.5469L2.57812 7.125C2.28646 6.83333 2.06771 6.50521 1.92188 6.14062C1.77604 5.76562 1.70312 5.38542 1.70312 5C1.70312 4.61458 1.77604 4.23958 1.92188 3.875C2.06771 3.5 2.28646 3.16667 2.57812 2.875C2.86979 2.58333 3.19792 2.36458 3.5625 2.21875C3.9375 2.07292 4.31771 2 4.70312 2C5.08854 2 5.46354 2.07292 5.82812 2.21875C6.19271 2.36458 6.52604 2.58333 6.82812 2.875L7.53125 3.57812C7.65625 3.71354 7.8125 3.78125 8 3.78125C8.1875 3.78125 8.34375 3.71354 8.46875 3.57812L9.17188 2.875C9.47396 2.58333 9.80729 2.36458 10.1719 2.21875C10.5365 2.07292 10.9115 2 11.2969 2C11.6823 2 12.0573 2.07292 12.4219 2.21875C12.7969 2.36458 13.1302 2.58333 13.4219 2.875ZM14.3594 1.9375C13.9427 1.51042 13.4635 1.19271 12.9219 0.984375C12.3906 0.776042 11.849 0.671875 11.2969 0.671875C10.7448 0.671875 10.2031 0.776042 9.67188 0.984375C9.14062 1.19271 8.66146 1.51042 8.23438 1.9375L8 2.17188L7.76562 1.9375C7.33854 1.51042 6.85938 1.19271 6.32812 0.984375C5.79688 0.776042 5.25521 0.671875 4.70312 0.671875C4.15104 0.671875 3.60417 0.776042 3.0625 0.984375C2.53125 1.19271 2.05729 1.51042 1.64062 1.9375C1.21354 2.35417 0.890625 2.83333 0.671875 3.375C0.463542 3.90625 0.359375 4.44792 0.359375 5C0.359375 5.55208 0.463542 6.09896 0.671875 6.64062C0.890625 7.17188 1.21354 7.64583 1.64062 8.0625L7.53125 13.9531C7.65625 14.0885 7.8125 14.1562 8 14.1562C8.1875 14.1562 8.34375 14.0885 8.46875 13.9531L14.3594 8.0625C14.7865 7.64583 15.1042 7.17188 15.3125 6.64062C15.5312 6.09896 15.6406 5.55208 15.6406 5C15.6406 4.44792 15.5312 3.90625 15.3125 3.375C15.1042 2.84375 14.7865 2.36458 14.3594 1.9375Z" fill="#2D2A6E"/>
</svg>
