<svg width="21" height="26" viewBox="0 0 21 26" fill="none" xmlns="http://www.w3.org/2000/svg">
<path d="M7.60039 19.5999L3.68911 24.6286C3.5716 24.7797 3.67926 24.9999 3.87066 24.9999H5.70075C5.76432 24.9999 5.82506 24.9735 5.86854 24.9272L9.19597 21.3779C9.29922 21.2678 9.47879 21.2853 9.5588 21.4133L11.8004 24.9999" stroke="#96AE00" stroke-width="1.5" stroke-linecap="round"/>
<path d="M18.062 18.4427L17.6114 17.8432L18.062 18.4427ZM1.01352 8.18159L0.264562 8.14205L1.01352 8.18159ZM1.69442 5.15266L2.38638 5.44196L1.69442 5.15266ZM2.56801 4.864L2.18125 5.50659L2.56801 4.864ZM20.0979 16.2294L19.4629 15.8303L20.0979 16.2294ZM19.8678 15.2764L20.2545 14.6338L19.8678 15.2764ZM16 2.79976L16.7161 2.57671L16.5229 1.95646L15.8814 2.05919L16 2.79976ZM18.8852 14.5843L19.1082 15.3004L20.5404 14.8543L20.3173 14.1382L18.8852 14.5843ZM10.7875 9.07846L10.3635 9.69711L11.6008 10.5451L12.0248 9.92647L10.7875 9.07846ZM15.1859 0.356636C14.8307 0.143525 14.37 0.258699 14.1569 0.613884C13.9438 0.969069 14.0589 1.42976 14.4141 1.64288L15.1859 0.356636ZM17.4141 3.44288C17.7693 3.65599 18.23 3.54081 18.4431 3.18563C18.6562 2.83044 18.5411 2.36975 18.1859 2.15664L17.4141 3.44288ZM3.11614 4.1036L2.37557 4.2222L2.61278 5.70333L3.35334 5.58472L3.11614 4.1036ZM19.4629 15.8303C18.9731 16.6096 18.3486 17.2892 17.6114 17.8432L18.5125 19.0423C19.3965 18.3781 20.1458 17.5625 20.7329 16.6285L19.4629 15.8303ZM17.6114 17.8432C16.7053 18.5241 15.6426 19.0049 14.4804 19.254L14.7947 20.7207C16.1614 20.4278 17.4259 19.8589 18.5125 19.0423L17.6114 17.8432ZM14.4804 19.254C13.3177 19.5032 12.0771 19.5157 10.829 19.2847L10.556 20.7596C11.9879 21.0246 13.4284 21.0135 14.7947 20.7207L14.4804 19.254ZM10.829 19.2847C9.58067 19.0536 8.35172 18.5839 7.21419 17.8993L6.44066 19.1844C7.72642 19.9583 9.12417 20.4946 10.556 20.7596L10.829 19.2847ZM7.21419 17.8993C6.07666 17.2146 5.05595 16.3302 4.21146 15.2972L3.0501 16.2465C4.00316 17.4124 5.1549 18.4106 6.44066 19.1844L7.21419 17.8993ZM4.21146 15.2972C3.36697 14.2641 2.71756 13.1053 2.29824 11.8893L0.880179 12.3783C1.359 13.7669 2.09705 15.0806 3.0501 16.2465L4.21146 15.2972ZM2.29824 11.8893C1.87895 10.6733 1.69883 9.42666 1.76248 8.22113L0.264562 8.14205C0.19021 9.55033 0.401331 10.9896 0.880179 12.3783L2.29824 11.8893ZM1.76248 8.22113C1.81424 7.24064 2.02638 6.30301 2.38638 5.44196L1.00246 4.86335C0.573671 5.88895 0.325061 6.99614 0.264562 8.14205L1.76248 8.22113ZM2.38638 5.44196C2.37682 5.46481 2.34674 5.50023 2.29723 5.51612C2.25047 5.53113 2.20689 5.52202 2.18125 5.50659L2.95477 4.22142C2.25196 3.79841 1.33231 4.07442 1.00246 4.86335L2.38638 5.44196ZM20.7329 16.6285C21.1689 15.9348 20.9199 15.0343 20.2545 14.6338L19.481 15.919C19.4585 15.9055 19.4527 15.8899 19.4513 15.8842C19.4493 15.8763 19.4478 15.8543 19.4629 15.8303L20.7329 16.6285ZM2.18125 5.50659L19.481 15.919L20.2545 14.6338L2.95477 4.22142L2.18125 5.50659ZM15.2839 3.0228L18.8852 14.5843L20.3173 14.1382L16.7161 2.57671L15.2839 3.0228ZM12.0248 9.92647L16.6186 3.22376L15.3814 2.37575L10.7875 9.07846L12.0248 9.92647ZM14.4141 1.64288L17.4141 3.44288L18.1859 2.15664L15.1859 0.356636L14.4141 1.64288ZM3.35334 5.58472L16.1186 3.54032L15.8814 2.05919L3.11614 4.1036L3.35334 5.58472Z" fill="white"/>
</svg>
