<svg width="15" height="15" viewBox="0 0 15 15" fill="none" xmlns="http://www.w3.org/2000/svg">
<path fill-rule="evenodd" clip-rule="evenodd" d="M7.5001 3.99768C6.52036 3.99768 5.73499 4.78796 5.73499 5.7628C5.73499 6.70381 6.47008 7.47106 7.40149 7.51983C7.46566 7.51459 7.53408 7.51412 7.60053 7.51973C8.52794 7.47018 9.25913 6.7059 9.26522 5.76132C9.26442 4.78819 8.47342 3.99768 7.5001 3.99768ZM4.68848 5.7628C4.68848 4.21206 5.94031 2.95117 7.5001 2.95117C9.05188 2.95117 10.3117 4.21102 10.3117 5.7628V5.76576H10.3117C10.3032 7.27857 9.11326 8.51562 7.60165 8.56715C7.57096 8.56819 7.54023 8.56653 7.50983 8.56219C7.51283 8.56262 7.51342 8.56258 7.51149 8.56246C7.50969 8.56234 7.50668 8.56222 7.50272 8.56222C7.49415 8.56222 7.48623 8.56279 7.48129 8.56341C7.45385 8.56684 7.42619 8.56809 7.39856 8.56715C5.8896 8.51571 4.68848 7.28056 4.68848 5.7628Z" fill="#79819C"/>
<path fill-rule="evenodd" clip-rule="evenodd" d="M4.32484 11.2839C3.7875 11.6458 3.48714 12.0599 3.3701 12.4535C4.4907 13.3919 5.92732 13.9535 7.50146 13.9535C9.07561 13.9535 10.5122 13.3919 11.6328 12.4535C11.5157 12.0598 11.2152 11.6454 10.6773 11.2834C9.833 10.7186 8.68489 10.4198 7.5067 10.4198C6.329 10.4198 5.17688 10.7184 4.32484 11.2839ZM7.5067 9.37329C8.84335 9.37329 10.2066 9.70922 11.2599 10.414L11.261 10.4147C12.1001 10.9794 12.6339 11.7457 12.7241 12.5935C12.7417 12.7588 12.6797 12.9225 12.5572 13.0348C11.2227 14.2568 9.45139 15 7.50146 15C5.55154 15 3.78023 14.2568 2.44576 13.0348C2.3232 12.9225 2.26124 12.7588 2.27882 12.5935C2.36901 11.7457 2.90283 10.9794 3.7419 10.4147L3.7445 10.413L3.74451 10.413C4.80397 9.70928 6.16988 9.37329 7.5067 9.37329Z" fill="#79819C"/>
<path fill-rule="evenodd" clip-rule="evenodd" d="M7.5 1.04651C3.93584 1.04651 1.04651 3.93584 1.04651 7.5C1.04651 11.0642 3.93584 13.9535 7.5 13.9535C11.0642 13.9535 13.9535 11.0642 13.9535 7.5C13.9535 3.93584 11.0642 1.04651 7.5 1.04651ZM0 7.5C0 3.35786 3.35786 0 7.5 0C11.6421 0 15 3.35786 15 7.5C15 11.6421 11.6421 15 7.5 15C3.35786 15 0 11.6421 0 7.5Z" fill="#79819C"/>
</svg>
