<svg width="14" height="15" viewBox="0 0 14 15" fill="none" xmlns="http://www.w3.org/2000/svg">
<path d="M5.90625 3.21094C6.09766 3.16536 6.28451 3.13346 6.4668 3.11523C6.64909 3.08789 6.82227 3.07878 6.98633 3.08789C7.50586 3.08789 7.98893 3.16081 8.43555 3.30664C8.89128 3.45247 9.3151 3.64844 9.70703 3.89453C10.0352 4.09505 10.3405 4.31836 10.623 4.56445C10.9056 4.81055 11.1654 5.06576 11.4023 5.33008C11.5846 5.5306 11.7533 5.73112 11.9082 5.93164C12.0632 6.13216 12.1999 6.31901 12.3184 6.49219C12.4186 6.62891 12.5007 6.75651 12.5645 6.875C12.6374 6.98438 12.7012 7.08008 12.7559 7.16211C12.5918 7.44466 12.4232 7.71354 12.25 7.96875C12.0768 8.21484 11.8991 8.44271 11.7168 8.65234C11.6074 8.77083 11.5573 8.91211 11.5664 9.07617C11.5846 9.23112 11.653 9.36328 11.7715 9.47266C11.8991 9.57292 12.0404 9.61849 12.1953 9.60938C12.3594 9.60026 12.4961 9.5319 12.6055 9.4043C12.8424 9.13086 13.0703 8.83008 13.2891 8.50195C13.5169 8.16471 13.7311 7.80924 13.9316 7.43555C13.9772 7.36263 14 7.2806 14 7.18945C14 7.08919 13.9772 6.99349 13.9316 6.90234C13.9316 6.90234 13.877 6.80208 13.7676 6.60156C13.6582 6.39193 13.4987 6.13672 13.2891 5.83594C13.1523 5.64453 12.9974 5.43945 12.8242 5.2207C12.6602 4.99284 12.4733 4.76497 12.2637 4.53711C11.9993 4.25456 11.7031 3.97201 11.375 3.68945C11.056 3.39779 10.7051 3.13346 10.3223 2.89648C9.85742 2.61393 9.34701 2.38151 8.79102 2.19922C8.23503 2.00781 7.64258 1.91211 7.01367 1.91211C6.79492 1.91211 6.56706 1.92578 6.33008 1.95312C6.10221 1.98047 5.87435 2.02148 5.64648 2.07617C5.48242 2.11263 5.35938 2.19922 5.27734 2.33594C5.19531 2.47266 5.17253 2.61849 5.20898 2.77344C5.24544 2.92839 5.33203 3.05143 5.46875 3.14258C5.60547 3.22461 5.7513 3.2474 5.90625 3.21094ZM5.85156 6.84766L7.32812 8.32422C7.27344 8.33333 7.21875 8.34701 7.16406 8.36523C7.10938 8.37435 7.05469 8.37891 7 8.37891C6.84505 8.37891 6.69466 8.35612 6.54883 8.31055C6.41211 8.25586 6.28451 8.17383 6.16602 8.06445C6.04753 7.95508 5.95638 7.83203 5.89258 7.69531C5.82878 7.54948 5.79688 7.40365 5.79688 7.25781C5.78776 7.1849 5.78776 7.11654 5.79688 7.05273C5.80599 6.97982 5.82422 6.9069 5.85156 6.83398V6.84766ZM3.48633 4.48242L4.97656 5.97266C4.84896 6.17318 4.75326 6.38737 4.68945 6.61523C4.63477 6.8431 4.61198 7.07096 4.62109 7.29883C4.63021 7.59049 4.69857 7.8776 4.82617 8.16016C4.95378 8.44271 5.13151 8.69336 5.35938 8.91211C5.59635 9.13086 5.86068 9.29492 6.15234 9.4043C6.44401 9.50456 6.74023 9.55013 7.04102 9.54102C7.24154 9.5319 7.4375 9.5 7.62891 9.44531C7.82943 9.38151 8.02083 9.29492 8.20312 9.18555L9.55664 10.5391C9.14648 10.776 8.72266 10.9538 8.28516 11.0723C7.85677 11.1816 7.42839 11.2409 7 11.25C6.48958 11.25 6.00651 11.1771 5.55078 11.0312C5.10417 10.8763 4.6849 10.6803 4.29297 10.4434C3.96484 10.2337 3.65951 10.0059 3.37695 9.75977C3.0944 9.51367 2.83464 9.26302 2.59766 9.00781C2.41536 8.80729 2.24674 8.60677 2.0918 8.40625C1.93685 8.20573 1.80013 8.01888 1.68164 7.8457C1.58138 7.70898 1.49479 7.58138 1.42188 7.46289C1.35807 7.3444 1.29883 7.2487 1.24414 7.17578C1.55404 6.63802 1.89583 6.14583 2.26953 5.69922C2.65234 5.24349 3.05794 4.83789 3.48633 4.48242ZM0.177734 1.16016L2.66602 3.64844C2.1556 4.08594 1.68164 4.57812 1.24414 5.125C0.806641 5.66276 0.414714 6.25065 0.0683594 6.88867C0.0227865 6.9707 0 7.06185 0 7.16211C0 7.25326 0.0227865 7.33984 0.0683594 7.42188C0.0683594 7.42188 0.123047 7.52669 0.232422 7.73633C0.341797 7.93685 0.501302 8.19206 0.710938 8.50195C0.847656 8.69336 0.998047 8.90299 1.16211 9.13086C1.33529 9.34961 1.52669 9.57292 1.73633 9.80078C2.00065 10.0833 2.29232 10.3659 2.61133 10.6484C2.93945 10.931 3.29492 11.1908 3.67773 11.4277C4.14258 11.7194 4.65299 11.9564 5.20898 12.1387C5.76497 12.321 6.36654 12.4121 7.01367 12.4121C7.58789 12.4121 8.16211 12.3255 8.73633 12.1523C9.31966 11.9792 9.87565 11.724 10.4043 11.3867L13.002 13.998C13.1204 14.1074 13.2572 14.1621 13.4121 14.1621C13.5762 14.1621 13.7129 14.1074 13.8223 13.998C13.9408 13.8796 14 13.7383 14 13.5742C14 13.4193 13.9408 13.2871 13.8223 13.1777L8.6543 7.99609C8.6543 7.99609 8.64974 7.99154 8.64062 7.98242L6.19336 5.53516C6.19336 5.53516 6.1888 5.53516 6.17969 5.53516C6.17969 5.52604 6.17969 5.52148 6.17969 5.52148L0.998047 0.339844C0.879557 0.221354 0.738281 0.162109 0.574219 0.162109C0.419271 0.162109 0.287109 0.221354 0.177734 0.339844C0.0592448 0.449219 0 0.585938 0 0.75C0 0.914062 0.0592448 1.05078 0.177734 1.16016Z" fill="#B0AFCC"/>
</svg>
