<svg width="29" height="27" viewBox="0 0 29 27" fill="none" xmlns="http://www.w3.org/2000/svg">
<path d="M6.17009 17.8355V17.8355C4.72593 18.1125 3.33072 17.1662 3.0538 15.7221L1.52729 7.76113C1.23608 6.2424 2.22918 4.77553 3.74791 4.48432C5.96625 4.05895 9.0962 3.45878 11.4595 3.00562C13.8489 2.54746 17.033 1.99738 19.2646 1.61969C20.7605 1.3665 22.1793 2.35756 22.4651 3.84765C22.5751 4.42155 22.694 5.04177 22.8125 5.65941" stroke="#96AE00" stroke-width="1.5" stroke-linecap="round"/>
<path d="M6.3252 10.0523V19.6374C6.3252 21.1078 7.51725 22.2999 8.98771 22.2999H9.31064C9.86752 22.2999 10.319 22.7513 10.319 23.3082C10.319 24.406 10.4116 26.03 11.509 25.9993C12.2534 25.9785 12.5196 25.0684 12.9245 24.4433L13.4851 23.5777C14.0012 22.7809 14.8859 22.2999 15.8352 22.2999H23.8978C25.9565 22.2999 27.6253 20.6313 27.6253 18.5726V10.141C27.6253 8.12799 26.3096 6.37331 24.2972 6.32475C22.1289 6.27243 19.1057 6.32477 16.9753 6.32477H10.0522C7.99351 6.32477 6.3252 7.99364 6.3252 10.0523Z" stroke="white" stroke-width="1.5" stroke-linecap="round"/>
<circle cx="11.6496" cy="14.3127" r="1.33126" fill="#96AE00"/>
<circle cx="16.9748" cy="14.3127" r="1.33126" fill="#96AE00"/>
<circle cx="22.3" cy="14.3127" r="1.33126" fill="#96AE00"/>
</svg>
