<svg width="15" height="15" viewBox="0 0 15 15" fill="none" xmlns="http://www.w3.org/2000/svg">
<path fill-rule="evenodd" clip-rule="evenodd" d="M4.63938 1.88162C4.16687 2.43734 4 3.24623 4 4.26316V5.52632C4 5.78792 3.77614 6 3.5 6C3.22386 6 3 5.78792 3 5.52632V4.26316C3 3.18956 3.16646 2.10371 3.86062 1.28732C4.57359 0.448809 5.74776 0 7.5 0C9.25224 0 10.4264 0.448809 11.1394 1.28732C11.8335 2.10371 12 3.18956 12 4.26316V5.52632C12 5.78792 11.7761 6 11.5 6C11.2239 6 11 5.78792 11 5.52632V4.26316C11 3.24623 10.8331 2.43734 10.3606 1.88162C9.90692 1.34803 9.08109 0.947368 7.5 0.947368C5.91891 0.947368 5.09308 1.34803 4.63938 1.88162Z" fill="#79819C"/>
<path fill-rule="evenodd" clip-rule="evenodd" d="M7.50007 8.95926C6.84408 8.95926 6.31229 9.49105 6.31229 10.147C6.31229 10.803 6.84408 11.3348 7.50007 11.3348C8.15607 11.3348 8.68785 10.803 8.68785 10.147C8.68785 9.49105 8.15607 8.95926 7.50007 8.95926ZM5.29419 10.147C5.29419 8.92877 6.2818 7.94116 7.50007 7.94116C8.71835 7.94116 9.70595 8.92877 9.70595 10.147C9.70595 11.3653 8.71835 12.3529 7.50007 12.3529C6.2818 12.3529 5.29419 11.3653 5.29419 10.147Z" fill="#79819C"/>
<path fill-rule="evenodd" clip-rule="evenodd" d="M1.59093 6.93352C1.23407 7.30126 1.04651 7.98629 1.04651 9.42805V10.866C1.04651 12.3077 1.23407 12.9928 1.59093 13.3605C1.94778 13.7282 2.61254 13.9215 4.01163 13.9215H10.9884C12.3875 13.9215 13.0522 13.7282 13.4091 13.3605C13.7659 12.9928 13.9535 12.3077 13.9535 10.866V9.42805C13.9535 7.98629 13.7659 7.30126 13.4091 6.93352C13.0522 6.56578 12.3875 6.3725 10.9884 6.3725H4.01163C2.61254 6.3725 1.94778 6.56578 1.59093 6.93352ZM0.850932 6.17095C1.54059 5.46026 2.62002 5.29407 4.01163 5.29407H10.9884C12.38 5.29407 13.4594 5.46026 14.1491 6.17095C14.8387 6.88164 15 7.994 15 9.42805V10.866C15 12.3 14.8387 13.4124 14.1491 14.1231C13.4594 14.8338 12.38 14.9999 10.9884 14.9999H4.01163C2.62002 14.9999 1.54059 14.8338 0.850932 14.1231C0.161277 13.4124 0 12.3 0 10.866V9.42805C0 7.994 0.161277 6.88164 0.850932 6.17095Z" fill="#79819C"/>
</svg>
