<svg width="15" height="15" viewBox="0 0 15 15" fill="none" xmlns="http://www.w3.org/2000/svg">
<path d="M10.3555 10.6504C10.3444 10.6615 10.3333 10.6725 10.3223 10.6836C10.3112 10.6947 10.3001 10.7057 10.2891 10.7168C10.278 10.7279 10.2669 10.7389 10.2559 10.75C10.2448 10.7611 10.2337 10.7721 10.2227 10.7832C9.77995 11.2148 9.2653 11.5524 8.67871 11.7959C8.09212 12.0394 7.46126 12.1611 6.78613 12.1611C6.09993 12.1611 5.45801 12.0339 4.86035 11.7793C4.2627 11.5137 3.73698 11.1595 3.2832 10.7168C2.84049 10.263 2.48633 9.7373 2.2207 9.13965C1.96615 8.54199 1.83887 7.90007 1.83887 7.21387C1.83887 6.52767 1.96615 5.88574 2.2207 5.28809C2.48633 4.67936 2.84049 4.14811 3.2832 3.69434C3.73698 3.25163 4.2627 2.90299 4.86035 2.64844C5.45801 2.38281 6.09993 2.25 6.78613 2.25C7.47233 2.25 8.11426 2.38281 8.71191 2.64844C9.32064 2.90299 9.85189 3.25163 10.3057 3.69434C10.7484 4.14811 11.097 4.67936 11.3516 5.28809C11.6172 5.88574 11.75 6.52767 11.75 7.21387C11.75 7.87793 11.6227 8.50879 11.3682 9.10645C11.1247 9.69303 10.7871 10.2077 10.3555 10.6504ZM14.373 13.7881L11.7666 11.1816C12.2093 10.6393 12.5524 10.0306 12.7959 9.35547C13.0394 8.68034 13.1611 7.96647 13.1611 7.21387C13.1611 6.32845 12.9951 5.49837 12.6631 4.72363C12.3311 3.94889 11.8773 3.27376 11.3018 2.69824C10.7262 2.12272 10.0511 1.66895 9.27637 1.33691C8.50163 1.00488 7.67155 0.838867 6.78613 0.838867C5.91178 0.838867 5.08724 1.00488 4.3125 1.33691C3.53776 1.66895 2.86263 2.12272 2.28711 2.69824C1.71159 3.27376 1.25228 3.94889 0.90918 4.72363C0.577148 5.49837 0.411133 6.32845 0.411133 7.21387C0.411133 8.08822 0.577148 8.91276 0.90918 9.6875C1.25228 10.4622 1.71159 11.1374 2.28711 11.7129C2.86263 12.2884 3.53776 12.7477 4.3125 13.0908C5.08724 13.4229 5.91178 13.5889 6.78613 13.5889C7.53874 13.5889 8.2526 13.4671 8.92773 13.2236C9.61393 12.9691 10.2282 12.626 10.7705 12.1943L13.377 14.7842C13.5098 14.9281 13.6758 15 13.875 15C14.0742 15 14.2402 14.9281 14.373 14.7842C14.5169 14.6514 14.5889 14.4909 14.5889 14.3027C14.5889 14.1035 14.5169 13.932 14.373 13.7881Z" fill="#2D2A6E"/>
</svg>
